<svg width="390" height="450" viewBox="0 0 390 450" fill="none" xmlns="http://www.w3.org/2000/svg">
<path d="M428 344.159H-22V344.384H428V344.159Z" fill="#EBEBEB"/>
<path d="M382.911 358.645H353.101V358.87H382.911V358.645Z" fill="#EBEBEB"/>
<path d="M220.878 355.9H193.68V356.125H220.878V355.9Z" fill="#EBEBEB"/>
<path d="M352.2 350.288H289.3V350.513H352.2V350.288Z" fill="#EBEBEB"/>
<path d="M175.637 351.799H25.2131V352.024H175.637V351.799Z" fill="#EBEBEB"/>
<path d="M189.35 351.799H183.65V352.024H189.35V351.799Z" fill="#EBEBEB"/>
<path d="M191.313 304.02H17.5234C14.6911 304.02 12.3862 301.715 12.3862 298.883V54.5942C12.3862 51.7619 14.6911 49.457 17.5234 49.457H191.313C194.144 49.457 196.449 51.7619 196.449 54.5942V298.883C196.449 301.715 194.144 304.02 191.313 304.02ZM17.5234 49.6829C14.8144 49.6829 12.6112 51.8861 12.6112 54.5951V298.884C12.6112 301.593 14.8144 303.796 17.5234 303.796H191.313C194.021 303.796 196.224 301.593 196.224 298.884V54.5942C196.224 51.8861 194.021 49.682 191.313 49.682L17.5234 49.6829Z" fill="#EBEBEB"/>
<path d="M385.979 304.02H212.191C209.358 304.02 207.054 301.715 207.054 298.883V54.5942C207.054 51.7619 209.359 49.457 212.191 49.457H385.979C388.812 49.457 391.116 51.7619 391.116 54.5942V298.883C391.117 301.715 388.812 304.02 385.979 304.02ZM212.191 49.6829C209.483 49.6829 207.279 51.8861 207.279 54.5951V298.884C207.279 301.593 209.483 303.796 212.191 303.796H385.979C388.688 303.796 390.891 301.593 390.891 298.884V54.5942C390.891 51.8861 388.688 49.682 385.979 49.682L212.191 49.6829Z" fill="#EBEBEB"/>
<path d="M327.844 140.137H380.698C380.698 140.137 378.29 136.559 373.704 136.559C369.117 136.559 373.417 138.542 369.863 138.542C366.309 138.542 362.64 132.11 351.347 132.11C340.054 132.11 349.398 136.946 343.551 136.946C337.705 136.946 318.988 132.667 327.844 140.137Z" fill="#F0F0F0"/>
<path d="M227.368 86.8095H298.765C298.765 86.8095 295.513 81.9756 289.318 81.9756C283.123 81.9756 288.931 84.654 284.129 84.654C279.328 84.654 274.373 75.9663 259.118 75.9663C243.863 75.9663 256.485 82.4985 248.586 82.4985C240.688 82.4985 215.405 76.7178 227.368 86.8095Z" fill="#F5F5F5"/>
<path d="M171.369 93.1297C165.868 93.1297 171.026 95.5084 166.762 95.5084C162.499 95.5084 158.097 87.7936 144.55 87.7936C131.235 87.7936 141.285 94.3546 134.972 94.5796C134.859 94.5823 134.751 94.5859 134.628 94.5859C128.309 94.5859 121.786 83.1514 101.706 83.1514C81.626 83.1514 98.24 91.7491 87.8441 91.7491C77.4482 91.7491 44.1697 84.1405 59.917 97.4236H116.354H153.891H179.759C179.758 97.4218 176.87 93.1297 171.369 93.1297Z" fill="#F0F0F0"/>
<path d="M68.1413 67.0294C68.8415 67.2463 69.5192 67.5442 70.1654 67.9177C70.8098 68.293 71.4191 68.7502 71.9726 69.2866C72.3722 69.6754 72.7403 70.1074 73.0751 70.5745C73.6538 70.4584 74.2316 70.3882 74.8013 70.3702C75.5888 70.3477 76.3592 70.4188 77.0972 70.5727C77.8343 70.7293 78.5399 70.9615 79.2032 71.2666C79.8647 71.5717 80.4947 71.9362 81.0527 72.3889C80.4065 72.0856 79.7189 71.8876 79.025 71.7526C78.3311 71.6185 77.6237 71.5636 76.9217 71.5816C75.515 71.6158 74.1326 71.9866 72.8906 72.6274L72.0338 73.0693L71.7323 72.1837C71.2949 70.8994 70.5614 69.7186 69.5678 68.7655C69.0719 68.2894 68.5211 67.8619 67.9208 67.501C67.3214 67.141 66.6806 66.8305 65.9939 66.6235C66.7238 66.6613 67.442 66.8134 68.1413 67.0294Z" fill="#E0E0E0"/>
<path d="M41.7667 67.8538C42.2896 68.1193 42.7846 68.4451 43.2454 68.8258C43.7044 69.2083 44.1247 69.6493 44.4928 70.1461C44.7574 70.5061 44.9923 70.8958 45.1966 71.3071C45.6655 71.2936 46.1281 71.317 46.5781 71.3809C47.2 71.47 47.7958 71.6302 48.3556 71.8516C48.9145 72.0748 49.4401 72.3529 49.9216 72.6823C50.4031 73.0117 50.8513 73.3834 51.2329 73.8145C50.7631 73.4887 50.2483 73.2394 49.7209 73.0396C49.1926 72.8398 48.6436 72.7012 48.0901 72.6193C46.9813 72.4555 45.8491 72.559 44.7925 72.8938L44.0635 73.1251L43.9384 72.388C43.7566 71.3206 43.3291 70.2928 42.6694 69.4099C42.34 68.9689 41.9611 68.5585 41.5354 68.1931C41.1097 67.8286 40.6462 67.4983 40.1323 67.2427C40.6993 67.3723 41.2447 67.5892 41.7667 67.8538Z" fill="#E0E0E0"/>
<path d="M326.86 59.4254C327.587 59.6297 328.294 59.9186 328.969 60.2849C329.644 60.6548 330.283 61.1084 330.868 61.6466C331.29 62.0363 331.68 62.4719 332.037 62.9435C332.63 62.8076 333.225 62.7194 333.811 62.6852C334.623 62.6402 335.419 62.6924 336.183 62.831C336.946 62.9723 337.68 63.1919 338.372 63.488C339.062 63.785 339.72 64.1432 340.307 64.5941C339.633 64.2989 338.919 64.1135 338.2 63.9938C337.481 63.8741 336.75 63.8381 336.027 63.875C334.578 63.9488 333.163 64.3691 331.898 65.0639L331.026 65.5436L330.692 64.6382C330.209 63.3269 329.422 62.129 328.374 61.1741C327.851 60.6971 327.271 60.2714 326.644 59.9159C326.017 59.5613 325.349 59.2589 324.635 59.0645C325.388 59.0852 326.134 59.222 326.86 59.4254Z" fill="#E0E0E0"/>
<path d="M328.59 83.0731C329.076 83.2099 329.55 83.4034 330.002 83.6482C330.453 83.8957 330.88 84.199 331.272 84.559C331.554 84.82 331.815 85.1116 332.054 85.4266C332.451 85.3357 332.848 85.2763 333.241 85.2538C333.783 85.2241 334.316 85.2583 334.827 85.351C335.339 85.4455 335.829 85.5922 336.292 85.7911C336.753 85.9891 337.194 86.2294 337.587 86.5309C337.136 86.3338 336.658 86.2096 336.177 86.1286C335.696 86.0485 335.207 86.0242 334.724 86.0494C333.755 86.0989 332.807 86.3797 331.961 86.845L331.378 87.1654L331.155 86.5597C330.831 85.6822 330.305 84.8812 329.604 84.2413C329.254 83.9227 328.866 83.6374 328.446 83.3998C328.027 83.1622 327.58 82.9597 327.103 82.8301C327.606 82.8454 328.104 82.9372 328.59 83.0731Z" fill="#E0E0E0"/>
<path d="M351.444 79.2631C351.788 79.3603 352.122 79.4962 352.442 79.6699C352.761 79.8445 353.063 80.0596 353.34 80.3134C353.539 80.4979 353.724 80.704 353.892 80.9272C354.173 80.8624 354.454 80.821 354.731 80.8048C355.115 80.7841 355.491 80.8084 355.852 80.8732C356.213 80.9398 356.561 81.0442 356.887 81.1837C357.214 81.3241 357.524 81.4933 357.803 81.7066C357.484 81.5671 357.147 81.4789 356.806 81.4222C356.466 81.3655 356.121 81.3484 355.779 81.3655C355.094 81.4006 354.424 81.5995 353.826 81.928L353.413 82.1548L353.256 81.7264C353.027 81.1063 352.656 80.5402 352.16 80.0884C351.912 79.8625 351.639 79.6618 351.342 79.4935C351.045 79.3261 350.729 79.183 350.391 79.0903C350.748 79.1029 351.101 79.1668 351.444 79.2631Z" fill="#E0E0E0"/>
<path d="M310.725 96.0772C311.229 96.2194 311.719 96.4192 312.188 96.673C312.655 96.9295 313.099 97.2445 313.504 97.6171C313.796 97.8871 314.067 98.1895 314.315 98.5162C314.726 98.4217 315.138 98.3605 315.545 98.3371C316.107 98.3065 316.659 98.3425 317.189 98.4379C317.718 98.536 318.227 98.6881 318.706 98.8933C319.185 99.0985 319.642 99.3478 320.048 99.6601C319.581 99.4558 319.086 99.3271 318.588 99.2434C318.089 99.1606 317.582 99.1354 317.081 99.1606C316.077 99.2119 315.095 99.5035 314.218 99.985L313.613 100.317L313.382 99.6898C313.047 98.7799 312.502 97.9501 311.775 97.2877C311.412 96.9574 311.011 96.6622 310.576 96.4156C310.141 96.1699 309.678 95.9602 309.184 95.8252C309.706 95.8414 310.221 95.9359 310.725 96.0772Z" fill="#E0E0E0"/>
<path d="M314.482 121.272C314.819 121.367 315.147 121.501 315.46 121.671C315.773 121.842 316.07 122.054 316.34 122.303C316.536 122.484 316.718 122.686 316.883 122.905C317.159 122.842 317.434 122.801 317.707 122.785C318.083 122.765 318.453 122.789 318.806 122.853C319.16 122.919 319.501 123.02 319.822 123.158C320.142 123.296 320.447 123.462 320.719 123.671C320.406 123.534 320.075 123.448 319.742 123.392C319.408 123.337 319.069 123.32 318.734 123.337C318.061 123.371 317.404 123.567 316.818 123.889L316.413 124.111L316.259 123.692C316.034 123.083 315.67 122.528 315.183 122.084C314.94 121.863 314.672 121.666 314.38 121.501C314.09 121.336 313.779 121.196 313.449 121.106C313.8 121.115 314.145 121.178 314.482 121.272Z" fill="#E0E0E0"/>
<path d="M343.712 113.922C343.951 113.99 344.182 114.084 344.404 114.204C344.626 114.325 344.835 114.474 345.027 114.65C345.166 114.778 345.294 114.921 345.411 115.076C345.605 115.031 345.8 115.002 345.992 114.991C346.258 114.977 346.519 114.994 346.77 115.039C347.02 115.086 347.26 115.158 347.487 115.255C347.713 115.352 347.929 115.47 348.121 115.618C347.9 115.521 347.666 115.46 347.431 115.421C347.195 115.382 346.956 115.369 346.718 115.382C346.243 115.406 345.779 115.544 345.365 115.772L345.078 115.929L344.97 115.632C344.811 115.202 344.553 114.81 344.21 114.496C344.038 114.34 343.848 114.2 343.643 114.084C343.437 113.968 343.218 113.869 342.984 113.805C343.23 113.811 343.475 113.856 343.712 113.922Z" fill="#E0E0E0"/>
<path d="M135.299 191.184L55.8202 195.741L41.5381 154.77L121.017 150.213L135.299 191.184Z" fill="#F5F5F5"/>
<path d="M270.701 191.184L350.18 195.741L364.462 154.77L284.982 150.213L270.701 191.184Z" fill="#F5F5F5"/>
<path d="M413.25 344.159H-7.25L28.75 196.094C28.75 183.122 377.251 183.122 377.251 196.094L413.25 344.159Z" fill="#E6E6E6"/>
<path d="M405.473 316.801C271.298 337.669 134.702 337.669 0.525981 316.801C-1.47562 316.49 -2.84272 314.607 -2.52592 312.606C-2.07952 309.787 -1.63312 306.967 -1.18582 304.148C-0.870818 302.157 0.995781 300.802 2.98748 301.111C135.533 321.724 270.467 321.724 403.013 301.111C405.005 300.802 406.871 302.156 407.186 304.147C407.633 306.967 408.079 309.787 408.526 312.605C408.842 314.607 407.475 316.49 405.473 316.801Z" fill="#F5F5F5"/>
<path d="M391.177 262.819C266.474 282.188 139.526 282.188 14.8233 262.819C12.8217 262.509 11.4546 260.625 11.7714 258.625C12.1602 256.168 12.5499 253.711 12.9387 251.255C13.2537 249.264 15.1203 247.909 17.112 248.218C140.3 267.35 265.702 267.35 388.889 248.218C390.881 247.909 392.748 249.264 393.063 251.255C393.452 253.712 393.841 256.169 394.23 258.625C394.546 260.626 393.178 262.509 391.177 262.819Z" fill="#F5F5F5"/>
<path d="M379.221 208.835C262.439 226.949 143.561 226.949 26.7791 208.835C24.7766 208.525 23.4077 206.64 23.7245 204.638C24.0656 202.485 24.4067 200.331 24.7478 198.178C25.0628 196.188 26.9276 194.835 28.9184 195.143C144.283 213.036 261.717 213.036 377.081 195.143C379.072 194.835 380.936 196.188 381.251 198.178C381.592 200.332 381.934 202.486 382.275 204.639C382.592 206.639 381.223 208.525 379.221 208.835Z" fill="#F5F5F5"/>
<path d="M203 384.805C299.374 384.805 377.5 380.242 377.5 374.614C377.5 368.986 299.374 364.423 203 364.423C106.626 364.423 28.5 368.986 28.5 374.614C28.5 380.242 106.626 384.805 203 384.805Z" fill="#F5F5F5"/>
<path d="M182.069 275.598C156.373 240.301 138.758 198.752 137.547 186.189L180.609 196.619C180.609 196.619 194.789 240.152 202.409 265.147C210.335 291.135 176.187 361.189 176.187 361.189L165.755 360.104C175.945 320.758 171.41 292.311 182.069 275.598Z" fill="#FFC7C7"/>
<path d="M165.965 356.61C167.633 349.586 171.815 325.002 173.717 309.543C187.534 308.232 196.198 311.393 196.198 311.393C196.198 313.676 184.813 345.7 177.701 364.688L165.965 356.61Z" fill="#407BFF"/>
<path d="M173.717 309.546C173.517 311.178 173.295 312.906 173.042 314.708C182.493 314.339 189.953 315.382 194.821 316.425C195.695 313.686 196.201 311.874 196.201 311.39C196.201 311.39 187.54 308.229 173.717 309.546Z" fill="#263238"/>
<path d="M178.346 193.338C178.346 193.338 181.649 195.627 181.956 197.283C184.755 199.912 191.008 217.093 191.797 225.077C192.584 233.061 197.924 236.472 196.233 245.298C191.165 242.207 167.988 254.443 167.988 254.443C161.494 250.497 160.447 241.573 156.281 235.683C151.864 229.437 147.123 216.744 144.881 209.383C142.513 201.604 141.476 196.224 141.476 196.224L178.346 193.338Z" fill="#263238"/>
<path opacity="0.2" d="M156.859 207.083C153.898 201.93 146.438 201.14 143.562 204.849C143.942 206.241 144.384 207.757 144.879 209.38C147.123 216.744 151.865 229.441 156.279 235.689C156.532 236.047 156.774 236.416 157.006 236.795C161.116 228.502 161.737 215.574 156.859 207.083Z" fill="black"/>
<path d="M197.309 368.778C188.63 365.76 183.479 363.648 181.241 358.474C181.241 358.474 183.533 358.878 181.828 355.996C180.124 353.115 175.119 351.205 173.721 355.177C173.721 355.177 167.912 352.485 164.937 354.957L161.358 366.978C161.066 367.927 161.733 368.96 162.718 369.152C168.067 370.192 171.288 369.911 176.48 370.837C182.551 371.919 186.665 373.309 193.894 373.518C198.264 373.644 199.115 369.406 197.309 368.778Z" fill="#263238"/>
<path d="M174.664 372.062L172.861 371.711L172.026 369L176.453 369.861L174.664 372.062Z" fill="#263238"/>
<path d="M179.384 372.838L177.58 372.487L176.746 369.775L181.173 370.637L179.384 372.838Z" fill="#263238"/>
<path d="M184.758 373.836L182.926 373.687L181.797 371.085L186.292 371.45L184.758 373.836Z" fill="#263238"/>
<path d="M189.859 374.385L188.024 374.302L186.801 371.743L191.306 371.945L189.859 374.385Z" fill="#263238"/>
<path d="M194.912 374.611L193.077 374.529L191.854 371.97L196.359 372.171L194.912 374.611Z" fill="#263238"/>
<path d="M164.628 370.677L162.825 370.326L161.99 367.614L166.418 368.476L164.628 370.677Z" fill="#263238"/>
<path d="M169.621 371.499L167.817 371.148L166.984 368.437L171.41 369.297L169.621 371.499Z" fill="#263238"/>
<path d="M201.776 124.604C203.596 125.651 205.391 126.776 207.171 127.906C208.943 129.05 210.718 130.188 212.458 131.377L215.076 133.138L217.662 134.93L222.661 138.391L218.772 137.436C220.866 137.486 222.985 137.574 225.116 137.477C227.247 137.411 229.399 137.277 231.554 137.043C233.719 136.846 235.881 136.519 238.052 136.159C239.139 135.977 240.222 135.779 241.3 135.556L244.399 134.907L245.006 134.779C247.266 134.305 249.484 135.753 249.958 138.014C250.31 139.69 249.602 141.343 248.292 142.279L247.406 142.911L246.585 143.478C246.034 143.845 245.486 144.179 244.932 144.525C243.817 145.176 242.693 145.813 241.54 146.382C239.238 147.531 236.864 148.536 234.424 149.38C231.978 150.192 229.488 150.954 226.932 151.457C224.385 152.013 221.787 152.384 219.165 152.628C218.096 152.728 217.067 152.528 216.162 152.098L215.275 151.673C213.128 150.644 211.237 149.695 209.322 148.659C207.414 147.652 205.537 146.618 203.683 145.554C201.817 144.51 199.992 143.405 198.169 142.302C196.352 141.183 194.554 140.053 192.788 138.837C188.955 136.199 187.988 130.955 190.625 127.123C193.126 123.49 197.971 122.432 201.733 124.58L201.776 124.604Z" fill="#FFC7C7"/>
<path d="M193.316 116.652C201.349 119.462 211.606 129.416 214.695 131.578C218.792 134.447 218.002 141.597 215.866 144.689C214.183 147.125 211.218 149.715 207.003 148.749C202.789 147.784 196.561 144.221 196.561 144.221C196.561 144.221 183.528 112.701 193.316 116.652Z" fill="#407BFF"/>
<path opacity="0.2" d="M193.316 116.652C201.349 119.462 211.606 129.416 214.695 131.578C218.792 134.447 218.002 141.597 215.866 144.689C214.183 147.125 211.218 149.715 207.003 148.749C202.789 147.784 196.561 144.221 196.561 144.221C196.561 144.221 183.528 112.701 193.316 116.652Z" fill="black"/>
<path d="M242.296 135.787L250.704 132.271L251.927 143.134C251.927 143.134 243.927 145.393 242.038 141.336L242.296 135.787Z" fill="#FFC7C7"/>
<path d="M259.491 135.795L259.278 139.674C259.193 141.218 258.002 142.474 256.464 142.64L251.928 143.132L250.705 132.269L256.446 132.463C258.214 132.525 259.588 134.027 259.491 135.795Z" fill="#FFC7C7"/>
<path d="M85.1971 226.723C80.4505 221.261 75.4816 222.952 73.2496 225.698C69.8116 229.927 69.3229 231.732 66.577 236.235C63.3658 241.5 59.269 243.49 59.2312 250.722C59.215 253.766 63.7222 258.346 67.0027 254.249C72.3577 247.561 78.6442 244.225 78.6442 244.225C81.985 244.004 86.6164 242.946 83.7022 239.906C83.7022 239.906 88.3507 230.351 85.1971 226.723Z" fill="#263238"/>
<path d="M73.0337 225.043L74.444 223.866L77.0738 224.931L73.6115 227.821L73.0337 225.043Z" fill="#263238"/>
<path d="M70.2708 228.849L71.3561 227.366L74.165 227.767L71.501 231.405L70.2708 228.849Z" fill="#263238"/>
<path d="M67.8145 232.68L68.7685 231.109L71.6017 231.268L69.2581 235.122L67.8145 232.68Z" fill="#263238"/>
<path d="M65.4502 236.838L66.4042 235.267L69.2365 235.426L66.8938 239.279L65.4502 236.838Z" fill="#263238"/>
<path d="M63.032 239.931L64.2551 238.56L67.0118 239.229L64.0094 242.594L63.032 239.931Z" fill="#263238"/>
<path d="M60.6812 243.158L61.8989 241.783L64.6583 242.442L61.6676 245.818L60.6812 243.158Z" fill="#263238"/>
<path d="M59.0737 247.579L59.7028 245.852L62.5108 245.454L60.9682 249.691L59.0737 247.579Z" fill="#263238"/>
<path d="M102.896 248.294C119.853 224.125 117.646 196.62 134.094 186.19L171.816 192.083C171.816 192.083 138.25 253.68 110.388 278.03C89.9303 295.909 73.8851 234.907 73.8851 234.907C73.3451 228.79 75.8768 226.742 80.4632 227.415C80.4623 227.413 95.6372 234.858 102.896 248.294Z" fill="#FFC7C7"/>
<path d="M80.4623 227.413C75.8768 226.74 73.3451 228.789 73.8842 234.905C73.8842 234.905 76.6553 245.438 81.3614 256.468C79.3652 247.356 88.4381 236.996 95.3132 238.316C88.2329 231.224 80.4623 227.413 80.4623 227.413Z" fill="#407BFF"/>
<path d="M90.8085 234.266C85.2672 235.077 79.3137 241.62 78.2922 248.668C79.1877 251.144 80.22 253.789 81.3585 256.465C79.3668 247.362 88.4388 236.994 95.3184 238.322C93.8217 236.815 92.2827 235.466 90.8085 234.266Z" fill="#263238"/>
<path d="M132.748 186.189C132.748 186.189 129.236 188.142 128.767 189.76C125.723 192.102 117.81 208.583 116.241 216.451C114.671 224.319 109.226 226.882 110.041 235.832C121.86 235.416 136.08 248.537 136.08 248.537C142.932 245.249 145.741 235.884 150.541 230.499C155.34 225.114 162.423 214.006 166.693 207.086C170.964 200.166 171.967 193.189 171.967 193.189L132.748 186.189Z" fill="#263238"/>
<path d="M136.259 186.365C136.259 186.365 133.567 189.702 132.28 193.338C129.47 195.277 121.275 213.876 119.753 220.198C118.232 226.52 112.452 230.493 113.037 235.995C113.637 236.763 116.139 237.398 118.451 237.397C117.866 231.895 123.5 227.712 125.022 221.391C126.544 215.069 134.738 196.47 137.548 194.531C139.304 190.229 141.528 187.559 141.528 187.559L136.259 186.365Z" fill="white"/>
<path d="M144.793 121.243C141.585 151.594 132.354 180.989 131.214 187.166C173.826 190.678 178.666 204.406 184.861 200.296C193.333 176.897 201.854 154.669 205.493 137.846C207.342 129.297 202.822 120.605 194.748 117.24C184.994 113.173 173.469 109.668 163.575 107.552C154.488 105.609 145.77 112.002 144.793 121.243Z" fill="#407BFF"/>
<path d="M191.206 115.82C183.009 112.649 173.927 109.909 165.751 108.034C165.424 108.698 165.361 109.52 165.909 110.478C167.974 114.06 175.106 117.315 182.408 119.023C184.389 119.486 185.916 119.708 187.086 119.708C188.877 119.708 190.12 119.139 190.795 118.033C191.216 117.315 191.312 116.578 191.206 115.82Z" fill="white"/>
<path d="M172.398 92.9565L185.966 95.8284C186.818 102.739 185.926 106.988 187.514 112.561C189.183 115.774 191.559 118.992 182.892 116.968C173.897 114.868 168.354 111.347 167.939 109.899C173.334 107.721 172.361 99.6426 172.398 92.9565Z" fill="#FFC7C7"/>
<path opacity="0.2" d="M172.21 102.871C171.999 104.515 171.62 106.011 170.914 107.234C177.804 109.667 182.219 106.886 184.811 102.935C179.396 102.239 175.129 102.461 172.21 102.871Z" fill="black"/>
<path d="M166.404 74.1568C161.808 77.0359 164.59 82.2631 160.141 85.351C163.185 85.9225 165.292 84.5194 165.292 84.5194C165.292 84.5194 163.828 88.6054 162.014 89.869C166.814 90.6637 172.072 88.3804 172.492 86.1826C172.911 83.9839 171.731 70.8205 166.404 74.1568Z" fill="#263238"/>
<path d="M189.298 83.5294C189.571 92.4538 190.186 97.6675 186.112 102.599C179.985 110.017 168.627 106.865 165.686 98.1787C163.039 90.3595 163.037 77.0782 171.421 72.8194C179.68 68.6245 189.026 74.6041 189.298 83.5294Z" fill="#FFC7C7"/>
<path d="M187.608 91.5867C183.306 89.5671 182.779 83.0898 185.371 80.3898C182.735 76.6143 166.976 78.93 159.907 71.4501C163.858 71.0829 168.073 71.829 171.672 70.6437C175.272 69.4584 179.34 67.7754 185.37 68.8437C192.277 70.0677 194.28 74.0241 193.094 76.4388C198.364 77.229 196.608 90.972 187.608 91.5867Z" fill="#263238"/>
<path d="M169.833 99.3879C169.833 99.3879 172.56 98.2503 180.61 96.6006C180.176 98.8155 178.833 100.825 174.702 101.638C170.571 102.451 169.833 99.3879 169.833 99.3879Z" fill="#263238"/>
<path d="M176.414 99.378C175.402 99.5769 173.441 100.018 172.737 100.345C172.053 100.664 172.016 101.094 171.969 101.555C172.644 101.79 173.543 101.863 174.698 101.636C176.69 101.244 178.027 100.582 178.932 99.7416C178.714 99.288 177.568 99.1503 176.414 99.378Z" fill="white"/>
<path d="M170.183 99.2558C170.521 99.6401 171.11 100.816 171.952 100.791C173.653 100.543 177.845 99.2657 178.948 98.8283C179.66 98.5763 179.983 97.4451 180.261 96.6729C174.066 97.9554 171.125 98.9174 170.183 99.2558Z" fill="white"/>
<path d="M193.644 90.8856C193.27 93.2562 191.827 95.2281 190.202 96.3567C187.758 98.0541 185.538 96.111 185.382 93.3021C185.242 90.7731 186.345 86.8428 189.199 86.2641C192.013 85.6935 194.073 88.1748 193.644 90.8856Z" fill="#FFC7C7"/>
<path d="M176.109 88.4988C176.175 89.2215 175.846 89.8398 175.372 89.8794C174.897 89.919 174.46 89.3646 174.393 88.6419C174.327 87.9192 174.656 87.3009 175.13 87.2613C175.605 87.2217 176.042 87.7761 176.109 88.4988Z" fill="#263238"/>
<path d="M167.552 89.7966C167.618 90.5193 167.289 91.1376 166.814 91.1772C166.34 91.2168 165.903 90.6624 165.836 89.9397C165.77 89.217 166.099 88.5987 166.573 88.5591C167.048 88.5195 167.485 89.0739 167.552 89.7966Z" fill="#263238"/>
<path d="M170.526 90.2583C170.526 90.2583 169.263 94.5666 167.635 96.7302C169.027 97.8174 171.156 97.0902 171.156 97.0902L170.526 90.2583Z" fill="#FFABAB"/>
<path d="M176.517 82.8424C176.539 82.7749 176.545 82.7011 176.53 82.6273C176.485 82.3969 176.26 82.2484 176.028 82.2952C173.704 82.7623 172.943 84.5794 172.911 84.6559C172.822 84.8746 172.928 85.1212 173.148 85.2085C173.367 85.2949 173.615 85.1887 173.704 84.9718C173.729 84.9124 174.338 83.5012 176.193 83.1286C176.349 83.0962 176.469 82.9837 176.517 82.8424Z" fill="#263238"/>
<path d="M163.337 84.4705C163.44 84.5623 163.585 84.6028 163.728 84.5641C165.54 84.079 166.7 85.087 166.748 85.1302C166.923 85.2859 167.192 85.2715 167.346 85.0951C167.502 84.9187 167.488 84.6505 167.314 84.4921C167.25 84.4363 165.778 83.1277 163.508 83.7361C163.281 83.7964 163.147 84.0313 163.207 84.2599C163.23 84.3445 163.276 84.4165 163.337 84.4705Z" fill="#263238"/>
<path d="M126.631 122.095C119.987 125.724 129.706 140.896 137.693 138.426C143.166 134.621 145.45 121.51 126.631 122.095Z" fill="#263238"/>
<path d="M157.545 126.018L155.42 127.409L153.323 128.701C151.919 129.541 150.504 130.354 149.077 131.154C146.213 132.729 143.3 134.228 140.315 135.626C137.33 137.031 134.259 138.306 131.11 139.501C130.301 139.786 129.552 140.073 128.694 140.356L126.143 141.197L123.401 141.911C122.521 142.117 121.716 142.283 120.868 142.452C114.232 143.709 107.881 144.395 101.468 144.86C95.0673 145.32 88.7187 145.566 82.2738 145.444C79.9527 145.4 78.1068 143.482 78.1509 141.16C78.1878 139.229 79.5198 137.628 81.3018 137.168L81.3522 137.157C87.42 135.594 93.5553 134.168 99.6024 132.725C102.626 131.98 105.646 131.29 108.613 130.512C111.592 129.763 114.527 128.991 117.316 128.124L119.355 127.482L121.139 126.847L122.99 125.978C123.602 125.696 124.29 125.337 124.937 125.022C127.576 123.741 130.2 122.321 132.834 120.885C135.46 119.425 138.088 117.929 140.702 116.399L148.453 111.852L148.68 111.72C152.689 109.368 157.844 110.711 160.196 114.72C162.476 118.602 161.267 123.574 157.545 126.018Z" fill="#FFC7C7"/>
<path d="M86.1863 137.498L76.8218 136.124L78.3869 147.368C78.3869 147.368 87.0179 147.583 87.8729 143.016L86.1863 137.498Z" fill="#FFC7C7"/>
<path d="M68.8882 141.932L70.1014 145.779C70.5838 147.311 72.1057 148.268 73.6951 148.04L78.3868 147.368L76.8217 136.124L71.0968 137.797C69.3319 138.312 68.3356 140.178 68.8882 141.932Z" fill="#FFC7C7"/>
<path d="M162.204 107.324C156.137 106.006 149.635 108.135 146.737 109.627C143.84 111.12 134.796 118.32 126.631 122.095C140.855 125.607 138.748 135.617 137.694 138.426C155.254 133.509 157.284 128.952 160.668 125.314C164.053 121.677 166.958 108.357 162.204 107.324Z" fill="#407BFF"/>
<path opacity="0.2" d="M162.204 107.324C156.137 106.006 149.635 108.135 146.737 109.627C143.84 111.12 134.796 118.32 126.631 122.095C140.855 125.607 138.748 135.617 137.694 138.426C155.254 133.509 157.284 128.952 160.668 125.314C164.053 121.677 166.958 108.357 162.204 107.324Z" fill="black"/>
<path d="M200.456 143.704C200.014 147.069 197.707 149.543 195.303 149.227C192.899 148.912 191.309 145.927 191.75 142.561C192.192 139.196 194.499 136.723 196.902 137.039C199.306 137.355 200.898 140.338 200.456 143.704Z" fill="white"/>
<path d="M178.373 77.9296C169.832 77.8441 164.736 80.0833 160.609 79.249C165.501 76.882 167.092 74.0983 170.911 73.5709C174.731 73.0444 178.373 77.9296 178.373 77.9296Z" fill="#263238"/>
<path d="M186.986 77.5479C184.261 79.1571 177.733 78.4361 174.617 79.4279C179.306 80.237 185.052 81.7041 187.635 80.3829C190.218 79.0617 186.986 77.5479 186.986 77.5479Z" fill="#263238"/>
<path d="M188.382 78.5432C189.54 78.2525 190.655 77.9609 191.498 77.4416C192.34 76.9295 192.981 76.0763 193.257 75.1088C193.528 74.135 193.41 73.0631 192.895 72.1451C192.386 71.2208 191.537 70.4378 190.558 69.8663C188.593 68.6927 186.153 68.411 183.796 68.6468C182.637 68.7602 181.352 69.0572 180.142 68.6774C178.945 68.3363 177.927 67.6343 176.976 66.8999C177.976 67.565 179.043 68.1824 180.204 68.4209C181.369 68.6945 182.517 68.3345 183.726 68.1248C186.12 67.7108 188.744 67.7855 191.057 68.9393C192.199 69.5036 193.273 70.3217 194.022 71.4647C194.779 72.6023 195.079 74.0855 194.795 75.4661C194.515 76.8476 193.702 78.1238 192.54 78.9617C191.367 79.796 190.119 80.1749 188.973 80.5655C188.421 80.7536 187.822 80.4584 187.634 79.9067C187.447 79.355 187.742 78.7565 188.293 78.5684C188.32 78.5594 188.346 78.5513 188.374 78.545L188.382 78.5432Z" fill="#263238"/>
<path d="M173.661 77.1285C173.334 76.5228 172.913 75.9863 172.353 75.5813C171.785 75.1907 171.089 74.9487 170.346 74.82C168.843 74.5815 167.193 74.8362 165.645 75.3366C164.864 75.5805 164.109 75.9171 163.386 76.3041C162.666 76.6947 161.932 77.1816 161.139 77.5389C160.353 77.9088 159.478 78.1509 158.609 78.159C157.742 78.1779 156.897 78.0249 156.07 77.8413C156.912 77.9385 157.763 78.0015 158.589 77.8962C159.418 77.7999 160.187 77.4966 160.895 77.0718C161.613 76.6542 162.247 76.1295 162.971 75.6318C163.695 75.1413 164.457 74.703 165.265 74.3547C166.869 73.6527 168.624 73.1577 170.508 73.2486C171.444 73.3098 172.415 73.5213 173.308 74.0046C174.194 74.5014 174.932 75.243 175.491 76.0845C175.813 76.5705 175.68 77.2257 175.195 77.5479C174.709 77.8701 174.054 77.7378 173.732 77.2518C173.714 77.2257 173.698 77.1978 173.683 77.1708L173.661 77.1285Z" fill="#263238"/>
<path d="M164.124 68.5044C164.124 68.5044 167.059 71.5284 172.88 71.7453L175.45 69.4242C170.389 70.8957 164.124 68.5044 164.124 68.5044Z" fill="#263238"/>
<path d="M270.215 304.327C285.515 280.596 296.384 255.38 297.871 247.355L269.541 251.653C269.541 251.653 260.704 281.906 256.699 298.324C252.533 315.393 264.636 359.529 264.636 359.529L271.404 359.975C269.197 333.782 277.709 314.727 270.215 304.327Z" fill="#CE7A63"/>
<path d="M272.254 361.812C271.956 357.153 271.655 337.216 273.332 327.284C265.011 323.919 257.005 326.017 257.005 326.017C256.757 327.472 260.826 348.715 263.289 361.594L272.254 361.812Z" fill="#263238"/>
<path d="M250.133 364.198C255.827 362.498 259.128 361.714 261.188 358.705C261.188 358.705 259.683 358.678 261.12 357.06C262.557 355.441 267.721 354.445 268.118 357.14C268.118 357.14 271.3 356.081 272.883 358.017L273.671 366.09C273.738 366.728 273.188 367.302 272.538 367.302C269.014 367.302 267.003 366.726 263.593 366.673C259.605 366.611 256.878 367.431 252.201 367.358C249.375 367.313 248.948 364.55 250.133 364.198Z" fill="#407BFF"/>
<path d="M271.139 368.035H272.327L273.192 366.417H270.275L271.139 368.035Z" fill="#407BFF"/>
<path d="M267.868 367.941H269.056L269.92 366.323H267.003L267.868 367.941Z" fill="#407BFF"/>
<path d="M264.597 367.675H265.786L266.65 366.057H263.733L264.597 367.675Z" fill="#407BFF"/>
<path d="M261.326 367.941H262.514L263.378 366.323H260.462L261.326 367.941Z" fill="#407BFF"/>
<path d="M258.055 368.035H259.244L260.108 366.417H257.191L258.055 368.035Z" fill="#407BFF"/>
<path d="M254.784 368.035H255.972L256.837 366.417H253.92L254.784 368.035Z" fill="#407BFF"/>
<path d="M251.514 368.035H252.702L253.566 366.417H250.65L251.514 368.035Z" fill="#407BFF"/>
<path d="M311.15 303.02C304.161 278.263 304.134 260.15 299.797 252.366L278.394 255.04C278.394 255.04 289.129 289.307 294.777 305.235C303.444 323.893 322.742 347.663 322.742 347.663L328.84 343.7C318.919 325.31 318.374 315.402 311.15 303.02Z" fill="#CE7A63"/>
<path d="M332.16 347.721C329.981 343.865 321.489 326.959 318.818 317.783C310.32 318.346 304.349 323.445 304.349 323.445C304.738 324.79 316.989 341.255 324.413 351.238L332.16 347.721Z" fill="#263238"/>
<path d="M316.86 359.406C318.757 356.8 320.907 353.058 321.425 349.637C321.425 349.637 319.01 349.113 319.57 347.136C320.13 345.16 325.246 343.301 326.698 345.438C326.698 345.438 328.342 341.669 330.494 342.669L334.263 348.859C334.9 349.727 335.128 351.419 333.21 352.58C331.417 353.667 329.943 354.732 328.505 356.222C325.876 358.943 326.272 361.073 321.656 362.334C319.066 363.039 314.289 362.939 316.86 359.406Z" fill="#407BFF"/>
<path d="M333.97 352.608L334.712 351.759L334.096 350.131L332.274 352.215L333.97 352.608Z" fill="#407BFF"/>
<path d="M331.436 354.19L332.449 353.693L332.508 351.953L330.024 353.173L331.436 354.19Z" fill="#407BFF"/>
<path d="M329.372 355.988L330.296 355.344L330.092 353.615L327.821 355.197L329.372 355.988Z" fill="#407BFF"/>
<path d="M327.657 358.248L328.309 357.328L327.53 355.771L325.931 358.029L327.657 358.248Z" fill="#407BFF"/>
<path d="M325.799 360.429L326.548 359.587L325.947 357.953L324.107 360.019L325.799 360.429Z" fill="#407BFF"/>
<path d="M323.4 362.126L324.431 361.668L324.557 359.932L322.028 361.055L323.4 362.126Z" fill="#407BFF"/>
<path d="M320.793 362.946L321.893 362.7L322.358 361.022L319.658 361.625L320.793 362.946Z" fill="#407BFF"/>
<path d="M317.819 363.052L318.946 363.08L319.805 361.565L317.038 361.496L317.819 363.052Z" fill="#407BFF"/>
<path d="M271.184 249.665C271.184 249.665 268.928 250.954 268.636 252.003C266.685 253.54 262.301 266.878 262.085 272.062C261.869 277.246 258.546 279.643 259.961 285.281C265.191 289.335 277.899 291.682 277.899 291.682C281.948 288.897 283.887 282.309 286.361 278.354C288.985 274.159 290.625 265.046 291.803 260.211C293.048 255.102 294.776 253.598 294.776 253.598L271.184 249.665Z" fill="#407BFF"/>
<path opacity="0.2" d="M288.116 265.46C279.944 271.767 278.762 282.767 280.83 288.626C283.059 285.444 284.571 281.214 286.361 278.352C288.243 275.338 289.62 269.799 290.682 265.123L288.116 265.46Z" fill="black"/>
<path d="M267.66 214.174C266.517 214.961 265.355 215.692 264.18 216.415C263.001 217.129 261.82 217.844 260.614 218.519C259.415 219.207 258.201 219.876 256.967 220.527C255.728 221.196 254.506 221.811 253.117 222.476L252.586 222.73C252.493 222.775 252.387 222.814 252.289 222.841C248.383 223.911 244.557 224.302 240.803 224.371C238.923 224.386 237.061 224.329 235.212 224.172C233.347 224.006 231.558 223.788 229.648 223.394C228.173 223.089 227.225 221.647 227.529 220.172C227.764 219.035 228.674 218.212 229.755 218.033L229.911 218.008C231.532 217.744 233.28 217.489 234.945 217.192C236.625 216.899 238.289 216.586 239.923 216.228C241.563 215.897 243.156 215.461 244.717 215.041C246.273 214.604 247.753 214.067 249.17 213.522L248.342 213.887L251.576 211.65C252.684 210.875 253.807 210.106 254.941 209.352C256.066 208.583 257.214 207.847 258.36 207.107C259.511 206.376 260.671 205.649 261.848 204.972L261.858 204.967C264.466 203.467 267.796 204.365 269.296 206.974C270.716 209.445 269.964 212.579 267.66 214.174Z" fill="#CF7A64"/>
<path d="M267.318 199.828C262.124 201.645 255.49 208.083 253.493 209.48C250.843 211.335 251.354 215.959 252.736 217.96C253.824 219.535 255.742 221.21 258.467 220.585C261.192 219.961 272.456 213.877 272.456 213.877C272.456 213.877 273.649 197.273 267.318 199.828Z" fill="#407BFF"/>
<path d="M231.609 218.093L225.72 217.838L227.406 224.703C227.406 224.703 232.767 224.286 233.005 221.403L231.609 218.093Z" fill="#CE7A63"/>
<path d="M221.176 221.941L222.173 224.247C222.57 225.165 223.573 225.661 224.543 225.419L227.406 224.704L225.72 217.838L222.281 219.24C221.22 219.671 220.722 220.889 221.176 221.941Z" fill="#CE7A63"/>
<path d="M301.285 249.405C301.285 249.405 303.899 256.151 303.788 257.234C305.046 259.375 306.951 267.149 306.726 272.333C306.501 277.517 309.322 280.365 306.998 285.549C299.638 283.469 289.325 289.434 289.325 289.434C285.528 286.314 285.204 279.999 283.018 275.878C280.832 271.757 277.732 263.618 276.849 258.434C275.965 253.25 275.534 250.252 275.534 250.252L301.285 249.405Z" fill="#407BFF"/>
<path opacity="0.8" d="M301.65 281.129C296.711 281.239 290.844 283.713 286.901 286.313C287.525 287.521 288.294 288.593 289.323 289.437C289.323 289.437 299.64 283.468 306.994 285.554C307.593 284.22 307.855 283.046 307.914 281.94C306.613 281.484 304.605 281.062 301.65 281.129Z" fill="white"/>
<path d="M299.591 206.721C298.834 226.444 302.567 248.118 301.775 250.699C274.175 248.999 270.82 254.823 267.181 254.28C263.925 238.519 262.725 222.251 261.527 211.184C260.918 205.56 262.511 200.939 267.99 199.532C274.61 197.833 282.311 196.656 288.839 196.219C294.835 195.817 299.822 200.715 299.591 206.721Z" fill="#263238"/>
<path d="M284.637 212.69C284.896 215.494 282.102 218.285 282.102 218.285C282.102 218.285 278.888 216.532 278.629 213.728C278.369 210.925 279.696 210.489 281.355 210.202C283.014 209.917 284.379 209.888 284.637 212.69Z" fill="white"/>
<path opacity="0.2" d="M299.59 206.716C299.699 203.846 298.619 201.237 296.803 199.329C292.692 208.101 295.369 215.556 299.708 221.178C299.488 216.443 299.403 211.52 299.59 206.716Z" fill="black"/>
<path d="M270.387 198.95C275.928 197.681 281.994 196.768 287.401 196.324C287.549 196.78 287.513 197.312 287.073 197.874C285.42 199.976 280.553 201.398 275.722 201.814C274.411 201.928 273.412 201.928 272.664 201.82C271.518 201.654 270.775 201.174 270.446 200.404C270.243 199.907 270.25 199.427 270.387 198.95Z" fill="white"/>
<path d="M284.463 185.105L274.545 188.308C274.835 192.801 276.897 195.752 272.69 198.051C271.665 198.611 269.868 200.949 275.603 200.457C281.555 199.946 285.429 198.206 285.829 197.318C284.603 193.313 284.321 189.186 284.463 185.105Z" fill="#CE7A63"/>
<path opacity="0.2" d="M274.979 191.444C275.351 193.555 275.646 195.243 274.455 196.687C278.567 196.112 281.86 192.93 282.172 190.38C279.572 189.722 276.845 190.236 274.979 191.444Z" fill="black"/>
<path d="M268.217 170.411C266.264 173.731 270.063 175.678 270.063 175.678C270.063 175.678 267.42 182.948 269.284 187.506C272.814 184.596 273.627 174.036 273.627 174.036L268.217 170.411Z" fill="#263238"/>
<path d="M285.754 180.316C285.102 186.053 285.012 189.447 281.949 192.226C277.34 196.407 270.362 193.337 269.284 187.505C268.314 182.255 269.543 173.755 275.303 171.805C280.979 169.886 286.406 174.578 285.754 180.316Z" fill="#CE7A63"/>
<path d="M283.07 179.112C282.375 182.209 279.631 185.973 279.631 185.973C279.631 185.973 276.076 185.409 272.841 185.515C269.605 185.621 268.057 184.888 268.234 186.908C268.409 188.928 269.394 190.747 268.542 194.159C267.671 197.651 277.858 195.821 281.997 193.341C282.778 192.873 283.21 191.983 283.138 191.075C282.747 186.145 283.139 184.64 284.227 182.764C284.591 180.461 283.07 179.112 283.07 179.112Z" fill="#263238"/>
<path d="M272.952 181.905C272.952 181.905 271.746 184.546 270.503 185.78C271.293 186.604 272.723 186.336 272.723 186.336L272.952 181.905Z" fill="#BA4D3C"/>
<path d="M284.463 185.106C281.32 182.198 283.759 178.958 283.15 176.45C282.539 173.943 272.745 178.117 268.543 172.067C264.341 166.017 272.878 160.763 278.713 165.876C285.893 172.168 290.748 168.924 289.764 174.741C294.546 176.449 288.59 187.732 284.463 185.106Z" fill="#263238"/>
<path d="M288.707 175.078C288.707 175.078 291.521 173.644 290.975 171.134C292.947 173.631 291.196 175.57 288.707 175.078Z" fill="#263238"/>
<path d="M288.16 185.38C287.405 186.736 286.09 187.612 284.852 187.936C282.99 188.422 282.828 186.142 283.269 184.376C283.667 182.787 284.914 181.129 286.776 181.413C288.612 181.694 289.024 183.829 288.16 185.38Z" fill="#CE7A63"/>
<path d="M276.689 181.296C276.665 181.765 276.397 182.13 276.09 182.111C275.783 182.092 275.554 181.697 275.579 181.228C275.603 180.759 275.871 180.394 276.178 180.413C276.484 180.432 276.714 180.827 276.689 181.296Z" fill="#263238"/>
<path d="M271.092 181.334C271.068 181.803 270.8 182.168 270.493 182.149C270.186 182.13 269.957 181.735 269.982 181.266C270.006 180.797 270.274 180.432 270.581 180.451C270.887 180.47 271.116 180.865 271.092 181.334Z" fill="#263238"/>
<path d="M277.88 177.905C277.902 177.865 277.915 177.818 277.915 177.77C277.914 177.618 277.789 177.496 277.636 177.498C276.103 177.512 275.399 178.574 275.37 178.619C275.287 178.747 275.324 178.917 275.453 178.999C275.58 179.08 275.751 179.043 275.835 178.916C275.859 178.881 276.417 178.06 277.64 178.048C277.743 178.046 277.833 177.989 277.88 177.905Z" fill="#263238"/>
<path d="M268.773 178.215C268.843 178.27 268.939 178.29 269.029 178.259C270.178 177.869 270.969 178.471 271.002 178.496C271.122 178.589 271.295 178.568 271.387 178.448C271.48 178.328 271.459 178.155 271.341 178.06C271.297 178.027 270.292 177.245 268.853 177.733C268.709 177.782 268.633 177.94 268.681 178.084C268.698 178.138 268.731 178.183 268.773 178.215Z" fill="#263238"/>
<path d="M300.248 200.505C302.009 201.778 303.58 203.044 305.185 204.385C306.768 205.728 308.336 207.093 309.849 208.541C312.892 211.424 315.811 214.474 318.488 218.118L318.718 218.432C319.277 219.192 319.546 220.077 319.548 220.953C319.555 223.466 319.254 225.678 318.928 227.886C318.605 230.084 318.143 232.21 317.665 234.317C317.168 236.423 316.622 238.5 316.01 240.557C315.391 242.619 314.752 244.641 313.977 246.684C313.443 248.091 311.87 248.799 310.464 248.266C309.326 247.835 308.645 246.722 308.709 245.568L308.712 245.519C308.828 243.459 308.996 241.36 309.141 239.293C309.292 237.22 309.447 235.157 309.564 233.109C309.708 231.064 309.795 229.025 309.852 227.04C309.902 225.068 309.891 223.081 309.73 221.394L310.79 224.229C309.609 222.926 308.276 221.639 306.915 220.348C305.533 219.071 304.088 217.811 302.634 216.553C301.164 215.31 299.679 214.062 298.173 212.836L293.693 209.197L293.625 209.142C291.291 207.246 290.936 203.817 292.832 201.485C294.661 199.234 297.926 198.832 300.248 200.505Z" fill="#CF7A64"/>
<path d="M310.171 243.083L306.688 248.117L313.654 250.436C313.654 250.436 316.254 245.495 313.852 243.689L310.171 243.083Z" fill="#CE7A63"/>
<path d="M307.779 254.381L310.357 254.782C311.384 254.941 312.374 254.333 312.698 253.347L313.654 250.435L306.688 248.116L306.016 251.914C305.809 253.086 306.604 254.199 307.779 254.381Z" fill="#CE7A63"/>
<path d="M290.473 196.246C293.667 195.893 298.142 196.435 301.758 199.113C305.522 201.901 307.376 203.818 310.408 208.795C309.013 214.866 304.914 218.172 303.389 219.231C297.314 214.374 292.186 210.713 290.507 207.974C288.828 205.233 287.345 196.59 290.473 196.246Z" fill="#407BFF"/>
<path opacity="0.8" d="M259.825 280.555C259.546 281.922 259.496 283.425 259.96 285.283C265.194 289.336 277.901 291.683 277.901 291.683C278.947 290.956 279.851 289.986 280.661 288.863C276.186 287.672 264.502 283.62 259.825 280.555Z" fill="white"/>
<path d="M320.653 323.08C316.737 324.127 311.654 326.254 307.779 328.619C308.243 329.26 308.742 329.961 309.265 330.687C312.971 328.458 317.943 326.398 321.591 325.452C321.262 324.651 320.94 323.857 320.653 323.08Z" fill="#407BFF"/>
<path d="M322.553 327.783C318.897 328.838 314.414 330.737 310.843 332.857C311.324 333.524 311.831 334.216 312.345 334.917C315.782 332.924 320.163 331.084 323.574 330.122C323.228 329.336 322.891 328.559 322.553 327.783Z" fill="#407BFF"/>
<path d="M257.639 330.982C257.766 331.75 257.909 332.595 258.061 333.498C262.721 333.135 268.749 333.659 272.514 334.63C272.582 333.751 272.649 332.899 272.725 332.071C268.596 331.066 262.501 330.56 257.639 330.982Z" fill="#407BFF"/>
<path d="M258.524 336.124C258.668 336.935 258.82 337.787 258.981 338.656C263.321 338.394 268.648 338.851 272.244 339.695C272.269 338.834 272.312 337.972 272.362 337.128C268.453 336.259 263.033 335.82 258.524 336.124Z" fill="#407BFF"/>
<path d="M113.837 365.9C125.68 354.832 127.445 337.475 117.779 327.132C108.113 316.789 90.6761 317.377 78.8331 328.445C66.9901 339.513 65.2254 356.87 74.8915 367.213C84.5577 377.556 101.994 376.968 113.837 365.9Z" fill="white"/>
<path d="M92.6124 375.064C85.2009 375.064 78.6066 372.187 74.0445 366.965C69.423 361.675 67.4385 354.628 68.4564 347.124C70.5363 331.785 84.7086 319.306 100.05 319.306C107.462 319.306 114.056 322.183 118.618 327.405C123.239 332.695 125.224 339.742 124.206 347.246C122.126 362.584 107.953 375.064 92.6124 375.064ZM100.049 320.206C85.1415 320.206 71.3688 332.336 69.3474 347.246C68.3655 354.489 70.2744 361.282 74.7222 366.373C79.1115 371.397 85.4646 374.165 92.6124 374.165C107.52 374.165 121.293 362.035 123.314 347.125C124.296 339.882 122.387 333.089 117.939 327.997C113.55 322.973 107.197 320.206 100.049 320.206Z" fill="#263238"/>
<path d="M97.5517 340.791C97.5283 340.967 97.378 341.095 97.2052 341.095C97.189 341.095 97.1737 341.094 97.1575 341.092C96.9658 341.066 96.8308 340.889 96.8569 340.697L97.0027 339.621L88.6984 345.114L89.6956 345.453C89.8792 345.515 89.9773 345.714 89.9152 345.898C89.8657 346.044 89.7289 346.136 89.5831 346.136C89.5462 346.136 89.5084 346.13 89.4706 346.117L88.0918 345.649L89.8423 354.895L90.862 353.713C90.988 353.566 91.2094 353.549 91.3561 353.676C91.5028 353.803 91.519 354.024 91.3921 354.171L90.2761 355.466H100.197L99.4012 354.12C99.3031 353.953 99.358 353.739 99.5254 353.64C99.6919 353.542 99.907 353.596 100.005 353.763L100.685 354.912L104.929 345.694L103.564 346.119C103.529 346.13 103.494 346.135 103.459 346.135C103.31 346.135 103.171 346.039 103.124 345.889C103.067 345.703 103.17 345.507 103.355 345.45L104.572 345.071L97.7191 339.548L97.5517 340.791Z" fill="#263238"/>
<path d="M97.719 339.549L104.572 345.072L105.62 344.746L97.863 338.494L97.719 339.549Z" fill="#263238"/>
<path d="M101.248 355.867L106.018 345.508C106.042 345.455 106.053 345.399 106.056 345.343L104.928 345.694L100.684 354.912L101.248 355.867Z" fill="#263238"/>
<path d="M89.5002 356.365C89.5245 356.369 89.5461 356.378 89.5713 356.378H100.721C100.725 356.378 100.729 356.374 100.732 356.374L100.196 355.466H90.2751L89.5002 356.365Z" fill="#263238"/>
<path d="M87.1242 345.321C87.1242 345.349 87.1098 345.375 87.1152 345.403L89.0799 355.778L89.8404 354.896L88.0899 345.649L87.1242 345.321Z" fill="#263238"/>
<path d="M97.1646 338.42L87.6057 344.743L88.6974 345.114L97.0026 339.621L97.1646 338.42Z" fill="#263238"/>
<path d="M98.332 329.814L98.5003 328.572C98.5264 328.38 98.7028 328.246 98.8945 328.271C99.0862 328.297 99.2212 328.474 99.1951 328.666L99.0493 329.742L107.984 323.832L107.41 320.804C105.116 320.127 102.652 319.756 100.049 319.756C97.4617 319.756 94.912 320.123 92.4478 320.792L91.0105 323.913L98.332 329.814Z" fill="#263238"/>
<path d="M90.7404 323.851C90.8475 324.013 90.8025 324.23 90.6414 324.338L90.3354 324.54L98.1888 330.87L98.3319 329.814L91.0104 323.913L92.4477 320.792C92.0589 320.898 91.6719 321.009 91.2876 321.131L90.033 323.854C90.0249 323.871 90.024 323.889 90.0186 323.907L90.2535 323.752C90.4155 323.645 90.6333 323.69 90.7404 323.851Z" fill="#263238"/>
<path d="M99.0491 329.741L98.8862 330.942L108.553 324.548L108.268 324.318C108.118 324.196 108.093 323.976 108.215 323.824C108.336 323.674 108.557 323.65 108.708 323.771L108.935 323.954L108.397 321.115C108.073 321.005 107.743 320.901 107.41 320.802L107.983 323.831L99.0491 329.741Z" fill="#263238"/>
<path d="M97.0025 339.621L96.8567 340.696C96.8306 340.888 96.9656 341.065 97.1573 341.092C97.1735 341.094 97.1888 341.094 97.205 341.094C97.3778 341.094 97.5281 340.966 97.5515 340.791L97.7198 339.549L97.8629 338.493L98.8871 330.941L99.05 329.741L99.1958 328.665C99.2219 328.474 99.0869 328.296 98.8952 328.27C98.7035 328.245 98.5271 328.379 98.501 328.571L98.3327 329.813L98.1896 330.868L97.1654 338.42L97.0025 339.621Z" fill="#263238"/>
<path d="M79.4418 342.709L78.4446 342.37C78.261 342.308 78.1629 342.109 78.2259 341.926C78.288 341.742 78.4869 341.644 78.6705 341.706L80.0493 342.175L78.1899 332.358H75.2694C71.9601 336.602 69.6777 341.647 68.9199 347.066L70.6938 348.495L79.4418 342.709Z" fill="#263238"/>
<path d="M70.6029 348.715C70.7928 348.679 70.9764 348.804 71.0124 348.994L71.0772 349.335L80.5344 343.08L79.4427 342.709L70.6947 348.495L68.9208 347.066C68.9154 347.105 68.9073 347.145 68.9019 347.185C68.8587 347.504 68.829 347.82 68.7966 348.136L70.377 349.409L70.3221 349.123C70.287 348.934 70.4121 348.751 70.6029 348.715Z" fill="#263238"/>
<path d="M80.0502 342.174L81.0159 342.503C81.0159 342.475 81.0303 342.449 81.0249 342.421L79.0521 332.002L78.7623 332.194C78.7029 332.233 78.6354 332.253 78.5697 332.253C78.4554 332.253 78.3438 332.198 78.2763 332.095C78.1692 331.933 78.2142 331.716 78.3753 331.609L78.6111 331.454C78.5967 331.453 78.5832 331.446 78.5688 331.446H76.0065C75.7554 331.746 75.5106 332.05 75.2703 332.358H78.1908L80.0502 342.174Z" fill="#263238"/>
<path d="M88.0898 345.649L89.4686 346.117C89.5064 346.13 89.5442 346.136 89.5811 346.136C89.7278 346.136 89.8637 346.044 89.9132 345.898C89.9753 345.714 89.8772 345.515 89.6936 345.453L88.6964 345.114L87.6047 344.743L81.014 342.503L80.0483 342.175L78.6695 341.706C78.4859 341.644 78.287 341.742 78.2249 341.925C78.1628 342.109 78.2609 342.308 78.4436 342.37L79.4408 342.708L80.5325 343.079L87.1232 345.319L88.0898 345.649Z" fill="#263238"/>
<path d="M114.03 342.128L115.395 341.704C115.58 341.645 115.777 341.749 115.834 341.934C115.892 342.119 115.788 342.316 115.604 342.373L114.386 342.752L121.512 348.495L123.781 346.995C124.475 341.603 123.561 336.584 121.412 332.358H118.529L114.03 342.128Z" fill="#263238"/>
<path d="M118.51 332.121C118.441 332.208 118.34 332.252 118.237 332.252C118.16 332.252 118.082 332.227 118.017 332.174L117.72 331.935L112.94 342.315C112.916 342.368 112.904 342.423 112.901 342.479L114.029 342.127L118.528 332.357H121.411C121.254 332.049 121.091 331.745 120.921 331.445H118.235C118.234 331.445 118.231 331.447 118.231 331.447L118.456 331.628C118.607 331.75 118.631 331.971 118.51 332.121Z" fill="#263238"/>
<path d="M123.76 347.185C123.769 347.121 123.772 347.058 123.78 346.995L121.511 348.495L114.385 342.752L113.337 343.079L121.006 349.26L121.166 348.914C121.247 348.738 121.455 348.661 121.631 348.742C121.807 348.823 121.884 349.031 121.803 349.207L121.689 349.455C121.704 349.448 121.721 349.45 121.735 349.44L123.593 348.212C123.653 347.87 123.713 347.53 123.76 347.185Z" fill="#263238"/>
<path d="M115.833 341.934C115.776 341.75 115.58 341.645 115.394 341.704L114.029 342.129L112.901 342.48L105.62 344.747L104.572 345.072L103.355 345.451C103.169 345.509 103.067 345.705 103.124 345.891C103.171 346.041 103.31 346.137 103.459 346.137C103.494 346.137 103.529 346.132 103.564 346.121L104.929 345.696L106.057 345.345L113.338 343.079L114.386 342.752L115.604 342.373C115.787 342.316 115.891 342.119 115.833 341.934Z" fill="#263238"/>
<path d="M105.007 362.228L105.802 363.573C105.9 363.74 105.845 363.955 105.679 364.054C105.623 364.087 105.562 364.102 105.5 364.102C105.381 364.102 105.264 364.041 105.198 363.93L104.519 362.781L100.162 372.244L101.391 373.235C106.807 371.525 111.74 368.313 115.611 364.112L115.255 362.228H105.007Z" fill="#263238"/>
<path d="M115.631 362.122C115.582 362.122 115.532 362.111 115.484 362.089C115.309 362.008 115.231 361.8 115.312 361.624L115.454 361.315H104.481C104.477 361.315 104.473 361.318 104.469 361.319L105.006 362.227H115.253L115.609 364.112C115.869 363.83 116.125 363.544 116.375 363.253L116.078 361.686C116.075 361.676 116.07 361.668 116.067 361.659L115.948 361.918C115.891 362.046 115.764 362.122 115.631 362.122Z" fill="#263238"/>
<path d="M104.52 362.781L103.955 361.826L99.259 372.025H99.5992C99.7927 372.025 99.9502 372.182 99.9502 372.376C99.9502 372.569 99.7936 372.727 99.5992 372.727H99.3094C99.3094 372.727 99.3112 372.73 99.313 372.731L100.326 373.548C100.683 373.45 101.037 373.345 101.39 373.235L100.161 372.244L104.52 362.781Z" fill="#263238"/>
<path d="M100.684 354.913L100.004 353.764C99.906 353.597 99.6909 353.541 99.5244 353.64C99.357 353.738 99.3021 353.954 99.4002 354.121L100.196 355.466L100.732 356.375L103.954 361.827L104.518 362.782L105.197 363.931C105.263 364.042 105.38 364.103 105.499 364.103C105.56 364.103 105.622 364.087 105.678 364.054C105.844 363.956 105.9 363.74 105.801 363.574L105.006 362.228L104.469 361.32L101.247 355.868L100.684 354.913Z" fill="#263238"/>
<path d="M83.9554 362.797L82.9357 363.981C82.8664 364.061 82.7683 364.102 82.6702 364.102C82.5892 364.102 82.5073 364.074 82.4416 364.017C82.2949 363.89 82.2787 363.669 82.4056 363.523L83.5216 362.228H73.3678L72.4849 364.146C75.2038 368.312 79.2349 371.501 84.1444 373.211L85.7293 372.163L83.9554 362.797Z" fill="#263238"/>
<path d="M85.8813 372.376C85.8813 372.182 86.0388 372.025 86.2323 372.025H86.6301L84.7158 361.915L83.9553 362.797L85.7283 372.162L84.1434 373.211C84.5097 373.339 84.8805 373.457 85.2558 373.568L86.4834 372.756C86.4951 372.749 86.4978 372.735 86.5077 372.727H86.2314C86.0388 372.727 85.8813 372.569 85.8813 372.376Z" fill="#263238"/>
<path d="M83.5207 362.227L84.2956 361.328C84.2713 361.324 84.2497 361.315 84.2245 361.315H73.3462L73.42 361.706C73.456 361.896 73.3309 362.08 73.1401 362.116C73.1185 362.12 73.096 362.122 73.0744 362.122C72.9088 362.122 72.7621 362.005 72.7306 361.837L72.6784 361.561C72.6748 361.569 72.6649 361.573 72.6613 361.581L71.908 363.216C72.0925 363.531 72.2851 363.841 72.484 364.146L73.3669 362.227H83.5207Z" fill="#263238"/>
<path d="M90.2759 355.466L91.3919 354.17C91.5188 354.024 91.5026 353.802 91.3559 353.675C91.2092 353.549 90.9878 353.566 90.8618 353.712L89.8421 354.895L89.0816 355.777L84.2972 361.327L83.5223 362.226L82.4063 363.521C82.2794 363.668 82.2956 363.89 82.4423 364.016C82.5089 364.072 82.5899 364.101 82.6709 364.101C82.769 364.101 82.8671 364.06 82.9364 363.98L83.9561 362.796L84.7166 361.914L89.501 356.364L90.2759 355.466Z" fill="#263238"/>
<path d="M121.632 348.741C121.457 348.66 121.248 348.737 121.167 348.913L121.007 349.259L115.455 361.316L115.313 361.625C115.232 361.801 115.31 362.009 115.485 362.09C115.533 362.112 115.582 362.123 115.632 362.123C115.765 362.123 115.892 362.047 115.95 361.918L116.069 361.659L121.691 349.453L121.805 349.205C121.885 349.03 121.808 348.822 121.632 348.741Z" fill="#263238"/>
<path d="M108.215 323.825C108.093 323.976 108.117 324.197 108.268 324.319L108.553 324.549L117.72 331.936L118.017 332.176C118.082 332.228 118.16 332.253 118.237 332.253C118.34 332.253 118.442 332.208 118.51 332.123C118.632 331.971 118.608 331.751 118.457 331.629L118.232 331.448L108.935 323.956L108.708 323.773C108.558 323.651 108.336 323.674 108.215 323.825Z" fill="#263238"/>
<path d="M99.9492 372.376C99.9492 372.182 99.7926 372.025 99.5982 372.025H99.2581H86.6301H86.2324C86.0389 372.025 85.8813 372.182 85.8813 372.376C85.8813 372.569 86.0389 372.727 86.2324 372.727H86.5087H99.3103H99.6C99.7926 372.727 99.9492 372.569 99.9492 372.376Z" fill="#263238"/>
<path d="M73.0743 362.122C73.0959 362.122 73.1175 362.12 73.14 362.116C73.3308 362.08 73.4559 361.896 73.4199 361.706L73.3461 361.316L71.0772 349.335L71.0124 348.994C70.9764 348.804 70.7928 348.679 70.6029 348.715C70.413 348.751 70.287 348.934 70.323 349.124L70.3779 349.41L72.6783 361.561L72.7305 361.837C72.762 362.005 72.9096 362.122 73.0743 362.122Z" fill="#263238"/>
<path d="M78.2764 332.096C78.3439 332.197 78.4555 332.253 78.5698 332.253C78.6364 332.253 78.703 332.234 78.7624 332.195L79.0522 332.003L90.3364 324.54L90.6424 324.338C90.8035 324.23 90.8485 324.014 90.7414 323.852C90.6343 323.69 90.4174 323.645 90.2554 323.753L90.0205 323.908L78.6121 331.454L78.3763 331.61C78.2134 331.717 78.1693 331.934 78.2764 332.096Z" fill="#263238"/>
</svg>
